<svg width="11" height="16" viewBox="0 0 11 16" fill="none" xmlns="http://www.w3.org/2000/svg">
<path d="M10.3078 5.24899C10.2548 4.12599 10.0628 2.98398 9.52975 2.03198C9.47375 1.92998 8.82676 1.075 8.81076 1.103C8.58776 1.569 8.41674 2.02399 8.15774 2.45499C8.19274 1.79199 8.16575 1.122 8.17175 0.451996C7.48775 0.636996 6.81777 1.06901 6.35077 1.62601C6.66777 1.11401 6.80475 0.516 7.01175 0C5.28775 0.253 3.57374 1.20801 2.32174 2.54001C1.89474 2.92501 1.54776 3.41401 1.25876 3.97101C0.814755 4.73501 0.516764 5.56199 0.423764 6.42099C-0.331236 9.92899 0.152768 14.079 0.152768 14.079L1.63275 11.669L1.97976 15.212L5.03875 13.027L3.71676 15.963C3.83776 15.695 4.57574 15.351 4.82174 15.166C5.19874 14.885 5.56875 14.594 5.92575 14.288C6.68875 13.638 7.40076 12.927 8.03576 12.154C9.32376 10.591 10.2278 8.803 10.3068 6.754C10.3228 6.269 10.3298 5.76099 10.3078 5.24899Z" fill="url(#paint0_linear_263_443)"/>
<defs>
<linearGradient id="paint0_linear_263_443" x1="6.43928" y1="4.33657" x2="0.974373" y2="17.4172" gradientUnits="userSpaceOnUse">
<stop offset="0.9948" stop-color="#FAE3D2"/>
<stop offset="0.9949" stop-color="#B02475"/>
</linearGradient>
</defs>
</svg>
