<svg width="10" height="17" viewBox="0 0 10 17" fill="none" xmlns="http://www.w3.org/2000/svg">
<path d="M0.274675 11.524C0.495675 12.62 0.859681 13.712 1.52668 14.567C1.59668 14.657 2.36267 15.4 2.37267 15.368C2.52067 14.878 2.62068 14.405 2.81068 13.942C2.87568 14.599 3.00368 15.255 3.10068 15.913C3.74368 15.627 4.33768 15.102 4.71168 14.484C4.47768 15.035 4.43368 15.643 4.30968 16.18C5.96468 15.67 7.50268 14.473 8.53168 12.973C8.89268 12.532 9.16068 11.998 9.35968 11.409C9.67968 10.591 9.84668 9.73301 9.80868 8.87601C10.0187 5.31401 8.91267 1.31198 8.91267 1.31198L7.82468 3.90399L6.94668 0.475983L4.27368 3.08701L5.12768 0C5.04868 0.282 4.37468 0.731989 4.16168 0.950989C3.83368 1.28399 3.51568 1.62598 3.21068 1.97998C2.56068 2.73398 1.96768 3.541 1.46068 4.397C0.434679 6.126 -0.185324 8.01998 0.0496762 10.045C0.103676 10.524 0.173675 11.024 0.274675 11.524Z" fill="url(#paint0_linear_263_1139)"/>
<defs>
<linearGradient id="paint0_linear_263_1139" x1="4.21228" y1="11.8338" x2="7.59807" y2="-1.8449" gradientUnits="userSpaceOnUse">
<stop offset="0.9948" stop-color="#FAE3D2"/>
<stop offset="0.9949" stop-color="#B02475"/>
</linearGradient>
</defs>
</svg>
