<svg width="20" height="30" viewBox="0 0 11 19" fill="none" xmlns="http://www.w3.org/2000/svg">
    <path d="M10.6865 5.20601C10.4405 3.98101 10.0345 2.76001 9.28848 1.80301C9.20848 1.70301 8.35248 0.872005 8.34248 0.908005C8.17548 1.456 8.06448 1.98501 7.85248 2.50101C7.77948 1.76801 7.63547 1.036 7.52847 0.298996C6.80947 0.617996 6.14448 1.205 5.72748 1.896C5.98848 1.281 6.03747 0.6 6.17747 0C4.32647 0.57 2.60648 1.90801 1.45648 3.58501C1.05348 4.07801 0.753468 4.675 0.532468 5.334C0.174468 6.249 -0.0125223 7.20701 0.0294777 8.16701C-0.204522 12.148 1.03148 16.624 1.03148 16.624L2.24748 13.726L3.22848 17.559L6.21748 14.64L5.26248 18.09C5.35148 17.775 6.10248 17.272 6.34248 17.027C6.70748 16.654 7.06547 16.271 7.40547 15.876C8.13247 15.032 8.79448 14.13 9.36148 13.174C10.5095 11.24 11.2015 9.122 10.9395 6.858C10.8785 6.323 10.7995 5.76301 10.6865 5.20601Z" fill="url(#paint0_linear_263_1634)"/>
    <defs>
    <linearGradient id="paint0_linear_263_1634" x1="6.28518" y1="4.8593" x2="2.49988" y2="20.1519" gradientUnits="userSpaceOnUse">
    <stop stop-color="#ECBCD1"/>
    <stop offset="0.9949" stop-color="#B02475"/>
    </linearGradient>
    </defs>
    </svg>