<svg width="53" height="46" viewBox="0 0 53 46" fill="none" xmlns="http://www.w3.org/2000/svg">
<path d="M1.37091e-06 40.6336C1.27586 33.3335 8.68099 17.612 16.38 11.6383C24.1805 5.90213 31.7463 -0.191526 40.8421 0.00461345C45.5079 0.282909 49.7573 6.19524 49.299 14.2939C52.7783 17.6068 54.3945 23.5517 51.5157 29.2375C48.8926 34.5925 43.5894 39.1 39.3105 42.2893C35.2768 45.4941 31.593 45.2743 26.9277 44.9953C22.0061 45.0456 17.0428 46.4734 12.1423 45.8368C7.98863 44.8998 4.56115 46.9693 0.684439 45.016L1.37091e-06 40.6336Z" fill="url(#paint0_linear_2777_8293)"/>
<path d="M48.7998 14.2657L48.7868 14.4966L48.9542 14.656C52.2803 17.8231 53.8447 23.5307 51.0696 29.0117L51.0695 29.0117L51.0666 29.0176C48.5008 34.2557 43.2863 38.7023 39.0117 41.8884L39.0055 41.893L38.9994 41.8978C35.1301 44.9721 31.6295 44.7756 26.9576 44.4962L26.9401 44.4951L26.9226 44.4953C24.9223 44.5158 22.9108 44.7609 20.9318 45.0021C20.4423 45.0618 19.9548 45.1212 19.47 45.1769C17.0149 45.459 14.6078 45.6497 12.2292 45.3439C10.3658 44.9281 8.63412 45.0902 7.03008 45.2403C6.77267 45.2644 6.51856 45.2882 6.26772 45.3093C4.5052 45.4571 2.86328 45.4794 1.13803 44.68L0.50687 40.6387C1.15 37.0567 3.28429 31.3977 6.22276 25.8734C9.18444 20.3053 12.9183 14.9593 16.6814 12.0372C17.2028 11.6538 17.7222 11.2695 18.2404 10.8861C21.612 8.39168 24.9298 5.93699 28.3674 4.0343C32.3234 1.84467 36.3969 0.411091 40.8217 0.504292C42.943 0.634594 45.0399 2.05196 46.5689 4.48283C48.0956 6.91022 49.0238 10.3076 48.7998 14.2657Z" stroke="#B1607A" stroke-opacity="0.1"/>
<path d="M1.41596 40.2405C2.46825 34.2194 8.57639 21.2542 14.9261 16.3263C21.3598 11.5953 27.5995 6.56824 35.1019 6.73256C38.9495 6.96126 42.4547 11.8381 42.0768 18.5172C44.9462 21.2483 46.2791 26.1525 43.9044 30.8406C41.7412 35.2571 37.3677 38.9749 33.8382 41.6054C30.5117 44.2484 27.4737 44.0671 23.6255 43.8384C19.566 43.8806 15.4726 45.0567 11.4304 44.5319C8.00453 43.7592 5.17798 45.4667 1.98042 43.8547L1.41596 40.2405Z" fill="url(#paint1_radial_2777_8293)"/>
<path d="M41.5776 18.489L41.5645 18.7199L41.7321 18.8794C44.4481 21.4646 45.7293 26.1315 43.4584 30.6147L43.4584 30.6147L43.4554 30.6207C41.3494 34.9203 37.0645 38.5772 33.5394 41.2045L33.5332 41.2091L33.5272 41.2139C30.365 43.7264 27.5102 43.5684 23.6552 43.3393L23.6378 43.3383L23.6204 43.3384C21.9659 43.3556 20.3016 43.5583 18.6697 43.757C18.2658 43.8062 17.8638 43.8552 17.4644 43.901C15.4419 44.1332 13.4667 44.2889 11.5172 44.039C9.96746 43.694 8.52589 43.8292 7.20477 43.9531C6.99272 43.9729 6.78378 43.9925 6.57798 44.0098C5.14256 44.1303 3.81983 44.1476 2.43384 43.5176L1.92285 40.2458C2.45416 37.3032 4.20834 32.653 6.62592 28.1083C9.06674 23.5199 12.139 19.1244 15.2276 16.7252C15.6588 16.4082 16.0882 16.0904 16.5165 15.7736C19.2966 13.7167 22.0267 11.6968 24.8554 10.1312C28.1098 8.32983 31.4534 7.15495 35.0814 7.23223C36.7937 7.33775 38.5 8.48382 39.7507 10.4722C40.9992 12.4571 41.7614 15.2407 41.5776 18.489Z" stroke="#B1607A" stroke-opacity="0.1"/>
<path d="M30.5745 41.8015C36.2392 40.8623 41.9182 39.6484 45.9793 33.5481C47.4856 31.2855 49.3878 29.1605 50.0051 26.0948C50.689 22.7027 47.9349 20.019 47.2203 17.1968C47.0861 16.6654 46.5068 16.9429 46.631 17.4773C47.3271 20.4653 49.4438 22.4133 49.2197 25.8876C49.0464 28.5677 45.9608 31.8354 44.7299 33.6614C40.9811 39.2184 35.4009 39.3479 30.4667 41.0592C30.1654 41.165 30.27 41.8518 30.5745 41.8015Z" fill="url(#paint2_linear_2777_8293)"/>
<path d="M38.2202 39.2699C38.8274 39.0396 39.4279 38.7803 40.0167 38.4799C37.6719 39.7912 35.1089 40.4623 32.4714 40.961C32.9932 40.8139 33.521 40.6737 34.0541 40.5321C34.162 40.5035 34.2701 40.4748 34.3784 40.446C35.6534 40.1065 36.9533 39.7505 38.2202 39.2699ZM47.1136 17.3223C47.1138 17.3224 47.1137 17.3239 47.113 17.3264C47.1131 17.3235 47.1135 17.3222 47.1136 17.3223Z" stroke="#B1607A" stroke-opacity="0.1"/>
<path d="M26.7556 32.4535C25.3999 34.0655 23.6405 34.4452 22.0903 35.5532C19.9297 37.0964 17.9805 39.1207 15.5435 39.7321C13.904 40.1443 12.2926 40.641 10.6563 41.068C8.72399 41.575 6.64002 41.202 4.68026 41.4396C4.46938 41.4662 4.47466 41.8526 4.66018 41.9296C8.3017 43.4454 12.7091 41.444 16.3072 40.5277C18.2559 40.0333 20.0323 38.2355 21.6887 36.8337C23.4423 35.3497 25.3709 34.6584 26.8359 32.5815C26.8846 32.512 26.809 32.3898 26.7556 32.4535Z" fill="url(#paint3_linear_2777_8293)"/>
<path d="M14.2706 40.5862C13.9257 40.6812 13.5806 40.7781 13.2344 40.8757C13.1588 40.8971 13.0832 40.9184 13.0075 40.9398C12.2717 41.1474 11.5301 41.3567 10.7832 41.5517L14.2706 40.5862ZM14.2706 40.5862C14.138 40.6261 14.0052 40.6663 13.8721 40.7065C13.6943 40.7603 13.5161 40.8141 13.3378 40.8676C12.3634 41.1599 11.3781 41.4435 10.3963 41.6516C8.92249 41.964 7.49268 42.098 6.16189 41.8527C6.47514 41.8487 6.79306 41.8506 7.117 41.8526C7.30211 41.8537 7.48919 41.8548 7.67848 41.8549C8.69062 41.855 9.75016 41.8227 10.7831 41.5517L14.2706 40.5862ZM17.6795 39.3955C17.3022 39.6193 16.9251 39.803 16.5468 39.9341C16.9369 39.7819 17.3137 39.5994 17.6795 39.3955Z" stroke="#B1607A" stroke-opacity="0.1"/>
<path d="M16.0179 35.4821C13.9017 36.5864 11.6671 37.6271 9.50702 38.5649C7.19896 39.567 5.01299 41.1687 2.52893 40.3982C2.17588 40.2887 2.06965 40.957 2.34448 41.1887C3.88618 42.4913 6.27457 41.2568 7.80359 40.4352C10.572 38.9468 13.4038 37.5479 16.1099 35.8596C16.2748 35.756 16.1923 35.3918 16.0179 35.4821Z" fill="url(#paint4_linear_2777_8293)"/>
<path d="M7.56682 39.9948C7.56685 39.9948 7.56689 39.9948 7.56693 39.9947L7.58951 40.0368C7.58947 40.0368 7.58944 40.0368 7.5894 40.0368M7.56682 39.9948L7.5894 40.0368M7.56682 39.9948C7.31905 40.1279 7.05489 40.2684 6.78013 40.4053C7.05283 40.289 7.32276 40.1644 7.5894 40.0368M7.5894 40.0368L7.80359 40.4352" stroke="#B1607A" stroke-opacity="0.1"/>
<path d="M16.6877 23.907C14.6054 27.0237 12.5901 30.2278 10.4522 33.2713C9.35395 34.8338 8.16741 36.3133 6.97718 37.7373C5.65006 39.3242 4.12738 39.8009 2.55767 40.6328C2.24267 40.8009 2.32459 41.5121 2.67712 41.4588C5.37047 41.0569 7.21765 38.9631 9.12509 36.4332C11.9786 32.6481 14.4161 28.4122 16.8569 24.1112C16.9456 23.9536 16.786 23.7597 16.6877 23.907Z" fill="url(#paint5_linear_2777_8293)"/>
<path d="M3.74292 40.6007C4.32354 40.3202 4.91711 40.0336 5.4999 39.6669C4.81901 40.1935 4.09987 40.5876 3.30657 40.8128C3.45094 40.7417 3.59652 40.6714 3.74292 40.6007Z" stroke="#B1607A" stroke-opacity="0.1"/>
<defs>
<linearGradient id="paint0_linear_2777_8293" x1="0.940494" y1="44.5197" x2="64.8782" y2="26.5968" gradientUnits="userSpaceOnUse">
<stop offset="0.0319975" stop-color="#3D0E21"/>
<stop offset="0.177042" stop-color="#C04989"/>
<stop offset="0.311" stop-color="#D24389"/>
<stop offset="0.511" stop-color="#DE49BD"/>
<stop offset="1" stop-color="#FDFDFD"/>
</linearGradient>
<radialGradient id="paint1_radial_2777_8293" cx="0" cy="0" r="1" gradientUnits="userSpaceOnUse" gradientTransform="translate(-0.707819 45.8892) rotate(-30.5279) scale(48.813 59.9171)">
<stop stop-color="#30000D"/>
<stop offset="0.375115" stop-color="#9C3468"/>
<stop offset="0.544689" stop-color="#BF4586"/>
<stop offset="1" stop-color="#E3C6CE" stop-opacity="0"/>
</radialGradient>
<linearGradient id="paint2_linear_2777_8293" x1="28.6179" y1="42.5585" x2="50.6539" y2="30.4869" gradientUnits="userSpaceOnUse">
<stop stop-color="#DF52C0"/>
<stop offset="1" stop-color="#EBD5EC" stop-opacity="0"/>
</linearGradient>
<linearGradient id="paint3_linear_2777_8293" x1="4.23547" y1="42.1885" x2="25.927" y2="36.4167" gradientUnits="userSpaceOnUse">
<stop stop-color="#75354F"/>
<stop offset="0.0001" stop-color="#4B0D23"/>
<stop offset="1" stop-color="#EB4BB1"/>
</linearGradient>
<linearGradient id="paint4_linear_2777_8293" x1="1.76776" y1="42.5585" x2="24.83" y2="30.861" gradientUnits="userSpaceOnUse">
<stop stop-color="#832A4F"/>
<stop offset="1" stop-color="#B33F7C"/>
</linearGradient>
<linearGradient id="paint5_linear_2777_8293" x1="2.82401" y1="42.1884" x2="22.0125" y2="24.5726" gradientUnits="userSpaceOnUse">
<stop stop-color="#6B2642"/>
<stop offset="1" stop-color="#C75594"/>
</linearGradient>
</defs>
</svg>
