<svg width="59" height="54" viewBox="0 0 59 54" fill="none" xmlns="http://www.w3.org/2000/svg">
<path d="M53.2727 36.0848C46.1979 38.3385 29.64 40.2836 21.9622 37.9721C14.474 35.4979 6.72373 33.3197 4.32302 27.5577C3.25494 24.5279 7.4858 19.4038 15.063 16.3059C17.122 12.7489 22.13 9.25556 28.1753 8.67743C33.8438 8.07781 39.4935 9.50594 43.6404 10.8453C47.732 12.025 48.5752 14.4172 49.6424 17.4471C51.0853 20.4994 53.8066 23.0022 54.6118 26.3283C54.9289 29.3136 57.8044 30.5892 57.1084 33.8262L53.2727 36.0848Z" fill="url(#paint0_linear_2786_463)"/>
<path d="M52.51 35.3644C46.6747 37.2233 33.0193 38.8266 26.6861 36.9206C20.5101 34.88 14.1168 33.0841 12.139 28.3305C11.2575 25.8323 14.7473 21.6056 20.9963 19.0507C22.6935 16.1177 26.8249 13.2361 31.8097 12.76C36.4847 12.2654 41.1444 13.443 44.5648 14.5478C47.9391 15.5207 48.6345 17.4935 49.5161 19.9921C50.7069 22.5095 52.9499 24.5742 53.6144 27.3176C53.876 29.7798 56.2482 30.8314 55.6732 33.5017L52.51 35.3644Z" fill="url(#paint1_radial_2786_463)"/>
<path d="M48.9477 32.2487C50.1677 32.373 51.4065 32.4669 52.6106 32.6165C53.2289 32.6935 53.8323 32.806 54.4191 32.9273C55.073 33.0626 55.4074 33.4069 55.8575 33.714C55.9481 33.7755 56.1581 33.6533 56.0984 33.5656C55.6434 32.8946 54.7688 32.69 53.7519 32.5304C52.2304 32.2918 50.6206 32.2289 48.9902 32.1743C48.9305 32.1725 48.8901 32.2429 48.9477 32.2487Z" fill="url(#paint2_linear_2786_463)"/>
<path d="M44.8385 31.7578C46.6442 32.0191 48.4759 32.2337 50.2596 32.5337C51.1755 32.6881 52.0714 32.8974 52.9432 33.1196C53.9147 33.3675 54.4265 33.926 55.1069 34.4323C55.2439 34.5337 55.547 34.3534 55.4541 34.2125C54.7468 33.1347 53.446 32.7662 51.9378 32.4606C49.6814 32.0035 47.3041 31.8175 44.897 31.6434C44.8089 31.6373 44.7532 31.7455 44.8385 31.7578Z" fill="url(#paint3_linear_2786_463)"/>
<path d="M44.8385 31.7578C46.6442 32.0191 48.4759 32.2337 50.2596 32.5337C51.1755 32.6881 52.0714 32.8974 52.9432 33.1196C53.9147 33.3675 54.4265 33.926 55.1069 34.4323C55.2439 34.5337 55.547 34.3534 55.4541 34.2125C54.7468 33.1347 53.446 32.7662 51.9378 32.4606C49.6814 32.0035 47.3041 31.8175 44.897 31.6434C44.8089 31.6373 44.7532 31.7455 44.8385 31.7578Z" fill="url(#paint4_linear_2786_463)"/>
<path d="M45.7291 30.8312C47.5348 31.0925 49.3666 31.307 51.1503 31.6071C52.0661 31.7615 52.962 31.9708 53.8338 32.193C54.8054 32.4409 55.3172 32.9994 55.9975 33.5057C56.1345 33.6071 56.4376 33.4268 56.3447 33.2859C55.6374 32.2081 54.3366 31.8395 52.8284 31.534C50.572 31.0769 48.1948 30.8909 45.7876 30.7167C45.6995 30.7106 45.6438 30.8189 45.7291 30.8312Z" fill="url(#paint5_linear_2786_463)"/>
<path d="M45.7174 30.0215C47.5231 30.2828 49.3548 30.4973 51.1385 30.7974C52.0544 30.9518 52.9503 31.1611 53.8221 31.3833C54.7936 31.6312 55.3054 32.1897 55.9858 32.696C56.1228 32.7974 56.4259 32.6171 56.333 32.4762C55.6257 31.3984 54.3249 31.0298 52.8167 30.7243C50.5603 30.2672 48.183 30.0812 45.7759 29.907C45.6878 29.9009 45.6321 30.0092 45.7174 30.0215Z" fill="url(#paint6_linear_2786_463)"/>
<path d="M47.9153 31.0773C49.2057 31.3566 50.5126 31.6005 51.7891 31.9092C52.4445 32.0679 53.088 32.2687 53.715 32.4786C54.4138 32.7128 54.7997 33.1704 55.3029 33.5943C55.4042 33.6792 55.6114 33.551 55.5398 33.437C54.9937 32.5655 54.0566 32.2234 52.9752 31.9219C51.3572 31.4709 49.6649 31.2266 47.952 30.9903C47.8893 30.9819 47.8543 31.0642 47.9153 31.0773Z" fill="url(#paint7_linear_2786_463)"/>
<path d="M42.4981 32.0758C44.7325 32.1388 47.0051 32.1496 49.2075 32.2559C50.3382 32.3108 51.4375 32.4257 52.505 32.5569C53.6948 32.7035 54.2714 33.23 55.0655 33.682C55.2255 33.7724 55.6268 33.5476 55.5268 33.4105C54.7657 32.3617 53.1772 32.127 51.3211 31.9827C48.5442 31.7669 45.584 31.8499 42.5849 31.9488C42.4751 31.9527 42.3925 32.0729 42.4981 32.0758Z" fill="url(#paint8_linear_2786_463)"/>
<path d="M42.5449 32.7116C44.7794 32.7745 47.052 32.7854 49.2543 32.8917C50.3851 32.9466 51.4844 33.0614 52.5519 33.1927C53.7416 33.3393 54.3183 33.8657 55.1124 34.3177C55.2724 34.4081 55.6737 34.1834 55.5737 34.0463C54.8126 32.9974 53.224 32.7627 51.368 32.6184C48.5911 32.4027 45.6308 32.4856 42.6318 32.5845C42.522 32.5884 42.4394 32.7086 42.5449 32.7116Z" fill="url(#paint9_linear_2786_463)"/>
<path d="M48.5129 30.3902C49.8033 30.6695 51.1103 30.9133 52.3867 31.2221C53.0421 31.3808 53.6857 31.5816 54.3127 31.7915C55.0115 32.0256 55.3974 32.4833 55.9006 32.9071C56.0019 32.9921 56.2091 32.8638 56.1374 32.7499C55.5914 31.8783 54.6543 31.5363 53.5728 31.2348C51.9549 30.7837 50.2626 30.5394 48.5497 30.3032C48.487 30.2948 48.452 30.377 48.5129 30.3902Z" fill="url(#paint10_linear_2786_463)"/>
<path d="M48.47 29.7573C49.7604 30.0365 51.0673 30.2804 52.3437 30.5891C52.9991 30.7479 53.6427 30.9487 54.2697 31.1585C54.9685 31.3927 55.3544 31.8503 55.8576 32.2742C55.9589 32.3591 56.1661 32.2309 56.0945 32.1169C55.5484 31.2454 54.6113 30.9033 53.5299 30.6018C51.9119 30.1508 50.2196 29.9065 48.5067 29.6703C48.444 29.6618 48.409 29.7441 48.47 29.7573Z" fill="url(#paint11_linear_2786_463)"/>
<path d="M47.3684 29.5699C48.6588 29.8492 49.9657 30.093 51.2422 30.4017C51.8976 30.5605 52.5412 30.7613 53.1681 30.9712C53.8669 31.2053 54.2528 31.6629 54.756 32.0868C54.8573 32.1717 55.0646 32.0435 54.9929 31.9295C54.4468 31.058 53.5097 30.716 52.4283 30.4144C50.8104 29.9634 49.1181 29.7191 47.4051 29.4829C47.3424 29.4745 47.3074 29.5567 47.3684 29.5699Z" fill="url(#paint12_linear_2786_463)"/>
<path d="M41.9512 30.5684C44.1857 30.6313 46.4583 30.6422 48.6606 30.7485C49.7913 30.8034 50.8907 30.9182 51.9582 31.0495C53.1479 31.1961 53.7245 31.7225 54.5187 32.1745C54.6787 32.2649 55.0799 32.0402 54.9799 31.9031C54.2188 30.8542 52.6303 30.6195 50.7742 30.4752C47.9973 30.2595 45.0371 30.3424 42.038 30.4413C41.9282 30.4453 41.8456 30.5655 41.9512 30.5684Z" fill="url(#paint13_linear_2786_463)"/>
<path d="M41.9981 31.2041C44.2325 31.2671 46.5051 31.2779 48.7075 31.3842C49.8382 31.4391 50.9375 31.554 52.005 31.6852C53.1948 31.8318 53.7714 32.3583 54.5655 32.8103C54.7255 32.9007 55.1268 32.6759 55.0268 32.5388C54.2657 31.4899 52.6772 31.2553 50.8211 31.111C48.0442 30.8952 45.084 30.9781 42.0849 31.0771C41.9751 31.081 41.8925 31.2012 41.9981 31.2041Z" fill="url(#paint14_linear_2786_463)"/>
<path d="M47.9661 28.8827C49.2565 29.162 50.5634 29.4059 51.8398 29.7146C52.4952 29.8733 53.1388 30.0741 53.7658 30.284C54.4646 30.5182 54.8505 30.9758 55.3537 31.3997C55.455 31.4846 55.6622 31.3564 55.5905 31.2424C55.0445 30.3709 54.1074 30.0288 53.026 29.7273C51.408 29.2763 49.7157 29.032 48.0028 28.7958C47.9401 28.7873 47.9051 28.8696 47.9661 28.8827Z" fill="url(#paint15_linear_2786_463)"/>
<path d="M47.9231 28.2498C49.2135 28.5291 50.5204 28.773 51.7969 29.0817C52.4523 29.2404 53.0958 29.4412 53.7228 29.6511C54.4216 29.8852 54.8075 30.3429 55.3107 30.7668C55.412 30.8517 55.6193 30.7234 55.5476 30.6095C55.0015 29.738 54.0644 29.3959 52.983 29.0944C51.3651 28.6434 49.6728 28.3991 47.9598 28.1628C47.8971 28.1544 47.8621 28.2367 47.9231 28.2498Z" fill="url(#paint16_linear_2786_463)"/>
<path d="M48.1965 28.8663C49.4869 29.1455 50.7939 29.3894 52.0703 29.6981C52.7257 29.8569 53.3693 30.0577 53.9963 30.2675C54.6951 30.5017 55.081 30.9593 55.5841 31.3832C55.6855 31.4681 55.8927 31.3399 55.821 31.2259C55.275 30.3544 54.3379 30.0124 53.2564 29.7108C51.6385 29.2598 49.9462 29.0155 48.2332 28.7793C48.1706 28.7708 48.1356 28.8531 48.1965 28.8663Z" fill="url(#paint17_linear_2786_463)"/>
<path d="M42.7793 29.8648C45.0138 29.9277 47.2864 29.9386 49.4887 30.0449C50.6195 30.0998 51.7188 30.2146 52.7863 30.3459C53.976 30.4925 54.5526 31.0189 55.3468 31.4709C55.5068 31.5613 55.908 31.3366 55.808 31.1995C55.047 30.1506 53.4584 29.9159 51.6024 29.7716C48.8254 29.5559 45.8652 29.6388 42.8662 29.7377C42.7564 29.7416 42.6737 29.8618 42.7793 29.8648Z" fill="url(#paint18_linear_2786_463)"/>
<path d="M48.7942 28.1791C50.0846 28.4584 51.3915 28.7023 52.668 29.011C53.3234 29.1697 53.9669 29.3705 54.5939 29.5804C55.2927 29.8146 55.6786 30.2722 56.1818 30.6961C56.2831 30.781 56.4904 30.6528 56.4187 30.5388C55.8726 29.6673 54.9355 29.3252 53.8541 29.0237C52.2361 28.5727 50.5438 28.3284 48.8309 28.0921C48.7682 28.0837 48.7332 28.166 48.7942 28.1791Z" fill="url(#paint19_linear_2786_463)"/>
<path d="M48.7512 27.5462C50.0416 27.8255 51.3486 28.0694 52.625 28.3781C53.2804 28.5368 53.924 28.7376 54.5509 28.9475C55.2497 29.1816 55.6356 29.6393 56.1388 30.0632C56.2401 30.1481 56.4474 30.0198 56.3757 29.9059C55.8296 29.0343 54.8925 28.6923 53.8111 28.3908C52.1932 27.9398 50.5009 27.6954 48.7879 27.4592C48.7253 27.4508 48.6902 27.533 48.7512 27.5462Z" fill="url(#paint20_linear_2786_463)"/>
<path d="M47.3567 32.8576C48.6471 33.1369 49.954 33.3808 51.2305 33.6895C51.8859 33.8482 52.5294 34.049 53.1564 34.2589C53.8552 34.493 54.2411 34.9507 54.7443 35.3746C54.8456 35.4595 55.0529 35.3312 54.9812 35.2173C54.4351 34.3457 53.498 34.0037 52.4166 33.7022C50.7986 33.2512 49.1063 33.0068 47.3934 32.7706C47.3307 32.7622 47.2957 32.8444 47.3567 32.8576Z" fill="url(#paint21_linear_2786_463)"/>
<path d="M41.9395 33.8561C44.1739 33.919 46.4466 33.9299 48.6489 34.0362C49.7796 34.0911 50.879 34.206 51.9465 34.3372C53.1362 34.4838 53.7128 35.0103 54.507 35.4622C54.6669 35.5526 55.0682 35.3279 54.9682 35.1908C54.2071 34.1419 52.6186 33.9073 50.7625 33.7629C47.9856 33.5472 45.0254 33.6301 42.0263 33.7291C41.9165 33.733 41.8339 33.8532 41.9395 33.8561Z" fill="url(#paint22_linear_2786_463)"/>
<path d="M47.9543 32.1705C49.2448 32.4497 50.5517 32.6936 51.8281 33.0023C52.4835 33.1611 53.1271 33.3619 53.7541 33.5717C54.4529 33.8059 54.8388 34.2635 55.342 34.6874C55.4433 34.7723 55.6505 34.6441 55.5788 34.5301C55.0328 33.6586 54.0957 33.3166 53.0143 33.015C51.3963 32.564 49.704 32.3197 47.9911 32.0835C47.9284 32.075 47.8934 32.1573 47.9543 32.1705Z" fill="url(#paint23_linear_2786_463)"/>
<path d="M47.9114 31.5375C49.2018 31.8168 50.5087 32.0607 51.7851 32.3694C52.4405 32.5281 53.0841 32.7289 53.7111 32.9388C54.4099 33.173 54.7958 33.6306 55.299 34.0545C55.4003 34.1394 55.6075 34.0112 55.5359 33.8972C54.9898 33.0257 54.0527 32.6836 52.9713 32.3821C51.3533 31.9311 49.661 31.6868 47.9481 31.4505C47.8854 31.4421 47.8504 31.5244 47.9114 31.5375Z" fill="url(#paint24_linear_2786_463)"/>
<path d="M47.9114 31.5375C49.2018 31.8168 50.5087 32.0607 51.7851 32.3694C52.4405 32.5281 53.0841 32.7289 53.7111 32.9388C54.4099 33.173 54.7958 33.6306 55.299 34.0545C55.4003 34.1394 55.6075 34.0112 55.5359 33.8972C54.9898 33.0257 54.0527 32.6836 52.9713 32.3821C51.3533 31.9311 49.661 31.6868 47.9481 31.4505C47.8854 31.4421 47.8504 31.5244 47.9114 31.5375Z" fill="url(#paint25_linear_2786_463)"/>
<path d="M47.9114 31.5375C49.2018 31.8168 50.5087 32.0607 51.7851 32.3694C52.4405 32.5281 53.0841 32.7289 53.7111 32.9388C54.4099 33.173 54.7958 33.6306 55.299 34.0545C55.4003 34.1394 55.6075 34.0112 55.5359 33.8972C54.9898 33.0257 54.0527 32.6836 52.9713 32.3821C51.3533 31.9311 49.661 31.6868 47.9481 31.4505C47.8854 31.4421 47.8504 31.5244 47.9114 31.5375Z" fill="url(#paint26_linear_2786_463)"/>
<path d="M47.9114 31.5375C49.2018 31.8168 50.5087 32.0607 51.7851 32.3694C52.4405 32.5281 53.0841 32.7289 53.7111 32.9388C54.4099 33.173 54.7958 33.6306 55.299 34.0545C55.4003 34.1394 55.6075 34.0112 55.5359 33.8972C54.9898 33.0257 54.0527 32.6836 52.9713 32.3821C51.3533 31.9311 49.661 31.6868 47.9481 31.4505C47.8854 31.4421 47.8504 31.5244 47.9114 31.5375Z" fill="url(#paint27_linear_2786_463)"/>
<path d="M46.4661 31.8441C47.7565 32.1233 49.0634 32.3672 50.3398 32.6759C50.9952 32.8346 51.6388 33.0354 52.2658 33.2453C52.9646 33.4795 53.3505 33.9371 53.8537 34.361C53.955 34.4459 54.1622 34.3177 54.0905 34.2037C53.5445 33.3322 52.6074 32.9901 51.526 32.6886C49.908 32.2376 48.2157 31.9933 46.5028 31.7571C46.4401 31.7486 46.4051 31.8309 46.4661 31.8441Z" fill="url(#paint28_linear_2786_463)"/>
<path d="M46.5442 33.6608C47.8346 33.9401 49.1415 34.184 50.418 34.4927C51.0734 34.6514 51.7169 34.8522 52.3439 35.0621C53.0427 35.2963 53.4286 35.7539 53.9318 36.1778C54.0331 36.2627 54.2404 36.1345 54.1687 36.0205C53.6226 35.149 52.6855 34.8069 51.6041 34.5054C49.9861 34.0544 48.2938 33.8101 46.5809 33.5738C46.5182 33.5654 46.4832 33.6477 46.5442 33.6608Z" fill="url(#paint29_linear_2786_463)"/>
<path d="M41.127 34.6593C43.3614 34.7223 45.6341 34.7331 47.8364 34.8394C48.9671 34.8943 50.0665 35.0092 51.134 35.1404C52.3237 35.287 52.9003 35.8135 53.6945 36.2655C53.8544 36.3559 54.2557 36.1311 54.1557 35.994C53.3946 34.9451 51.8061 34.7105 49.95 34.5662C47.1731 34.3504 44.2129 34.4333 41.2138 34.5323C41.104 34.5362 41.0214 34.6564 41.127 34.6593Z" fill="url(#paint30_linear_2786_463)"/>
<path d="M47.1418 32.9737C48.4323 33.253 49.7392 33.4968 51.0156 33.8056C51.671 33.9643 52.3146 34.1651 52.9416 34.375C53.6404 34.6091 54.0263 35.0668 54.5295 35.4906C54.6308 35.5756 54.838 35.4473 54.7663 35.3334C54.2203 34.4618 53.2832 34.1198 52.2018 33.8182C50.5838 33.3672 48.8915 33.1229 47.1786 32.8867C47.1159 32.8783 47.0809 32.9605 47.1418 32.9737Z" fill="url(#paint31_linear_2786_463)"/>
<path d="M47.0989 32.3408C48.3893 32.62 49.6962 32.8639 50.9726 33.1726C51.628 33.3314 52.2716 33.5322 52.8986 33.742C53.5974 33.9762 53.9833 34.4338 54.4865 34.8577C54.5878 34.9426 54.795 34.8144 54.7234 34.7004C54.1773 33.8289 53.2402 33.4868 52.1588 33.1853C50.5408 32.7343 48.8485 32.49 47.1356 32.2538C47.0729 32.2453 47.0379 32.3276 47.0989 32.3408Z" fill="url(#paint32_linear_2786_463)"/>
<path d="M47.0989 32.3408C48.3893 32.62 49.6962 32.8639 50.9726 33.1726C51.628 33.3314 52.2716 33.5322 52.8986 33.742C53.5974 33.9762 53.9833 34.4338 54.4865 34.8577C54.5878 34.9426 54.795 34.8144 54.7234 34.7004C54.1773 33.8289 53.2402 33.4868 52.1588 33.1853C50.5408 32.7343 48.8485 32.49 47.1356 32.2538C47.0729 32.2453 47.0379 32.3276 47.0989 32.3408Z" fill="url(#paint33_linear_2786_463)"/>
<path d="M47.0989 32.3408C48.3893 32.62 49.6962 32.8639 50.9726 33.1726C51.628 33.3314 52.2716 33.5322 52.8986 33.742C53.5974 33.9762 53.9833 34.4338 54.4865 34.8577C54.5878 34.9426 54.795 34.8144 54.7234 34.7004C54.1773 33.8289 53.2402 33.4868 52.1588 33.1853C50.5408 32.7343 48.8485 32.49 47.1356 32.2538C47.0729 32.2453 47.0379 32.3276 47.0989 32.3408Z" fill="url(#paint34_linear_2786_463)"/>
<path d="M47.0989 32.3408C48.3893 32.62 49.6962 32.8639 50.9726 33.1726C51.628 33.3314 52.2716 33.5322 52.8986 33.742C53.5974 33.9762 53.9833 34.4338 54.4865 34.8577C54.5878 34.9426 54.795 34.8144 54.7234 34.7004C54.1773 33.8289 53.2402 33.4868 52.1588 33.1853C50.5408 32.7343 48.8485 32.49 47.1356 32.2538C47.0729 32.2453 47.0379 32.3276 47.0989 32.3408Z" fill="url(#paint35_linear_2786_463)"/>
<path d="M45.6536 32.6473C46.944 32.9266 48.2509 33.1704 49.5273 33.4791C50.1827 33.6379 50.8263 33.8387 51.4533 34.0486C52.1521 34.2827 52.538 34.7403 53.0412 35.1642C53.1425 35.2491 53.3497 35.1209 53.278 35.0069C52.732 34.1354 51.7949 33.7934 50.7135 33.4918C49.0955 33.0408 47.4032 32.7965 45.6903 32.5603C45.6276 32.5519 45.5926 32.6341 45.6536 32.6473Z" fill="url(#paint36_linear_2786_463)"/>
<defs>
<linearGradient id="paint0_linear_2786_463" x1="56.5793" y1="33.8737" x2="32.6706" y2="2.06825" gradientUnits="userSpaceOnUse">
<stop offset="0.0159998" stop-color="#AD5A41"/>
<stop offset="0.131" stop-color="#CA927E"/>
<stop offset="1" stop-color="#FFFBEF"/>
</linearGradient>
<radialGradient id="paint1_radial_2786_463" cx="0" cy="0" r="1" gradientUnits="userSpaceOnUse" gradientTransform="translate(56.3794 32.7409) rotate(-158.3) scale(49.0258 66.3039)">
<stop stop-color="#BA745D"/>
<stop offset="0.143742" stop-color="#CB9682"/>
<stop offset="1" stop-color="white"/>
</radialGradient>
<linearGradient id="paint2_linear_2786_463" x1="56.3061" y1="33.4233" x2="49.0018" y2="29.7256" gradientUnits="userSpaceOnUse">
<stop stop-color="#711302"/>
<stop offset="1" stop-color="#C9A992"/>
</linearGradient>
<linearGradient id="paint3_linear_2786_463" x1="55.7527" y1="34.0005" x2="44.3054" y2="28.8612" gradientUnits="userSpaceOnUse">
<stop stop-color="#711302"/>
<stop offset="1" stop-color="#C9A992"/>
</linearGradient>
<linearGradient id="paint4_linear_2786_463" x1="55.7527" y1="34.0005" x2="44.3054" y2="28.8612" gradientUnits="userSpaceOnUse">
<stop stop-color="#711302"/>
<stop offset="1" stop-color="#C9A992"/>
</linearGradient>
<linearGradient id="paint5_linear_2786_463" x1="56.6433" y1="33.0739" x2="45.196" y2="27.9346" gradientUnits="userSpaceOnUse">
<stop stop-color="#711302"/>
<stop offset="1" stop-color="#C9A992"/>
</linearGradient>
<linearGradient id="paint6_linear_2786_463" x1="56.6316" y1="32.2642" x2="45.1843" y2="27.1249" gradientUnits="userSpaceOnUse">
<stop stop-color="#711302"/>
<stop offset="1" stop-color="#C9A992"/>
</linearGradient>
<linearGradient id="paint7_linear_2786_463" x1="55.7425" y1="33.2838" x2="46.9449" y2="30.0939" gradientUnits="userSpaceOnUse">
<stop stop-color="#711302"/>
<stop offset="1" stop-color="#C9A992"/>
</linearGradient>
<linearGradient id="paint8_linear_2786_463" x1="55.9261" y1="33.153" x2="44.1489" y2="25.8869" gradientUnits="userSpaceOnUse">
<stop stop-color="#711302"/>
<stop offset="1" stop-color="#C9A992"/>
</linearGradient>
<linearGradient id="paint9_linear_2786_463" x1="55.973" y1="33.7887" x2="44.1958" y2="26.5226" gradientUnits="userSpaceOnUse">
<stop stop-color="#711302"/>
<stop offset="1" stop-color="#C9A992"/>
</linearGradient>
<linearGradient id="paint10_linear_2786_463" x1="56.3402" y1="32.5967" x2="47.5426" y2="29.4068" gradientUnits="userSpaceOnUse">
<stop stop-color="#711302"/>
<stop offset="1" stop-color="#C9A992"/>
</linearGradient>
<linearGradient id="paint11_linear_2786_463" x1="56.2972" y1="31.9637" x2="47.4996" y2="28.7739" gradientUnits="userSpaceOnUse">
<stop stop-color="#711302"/>
<stop offset="1" stop-color="#C9A992"/>
</linearGradient>
<linearGradient id="paint12_linear_2786_463" x1="55.1956" y1="31.7763" x2="46.3981" y2="28.5865" gradientUnits="userSpaceOnUse">
<stop stop-color="#711302"/>
<stop offset="1" stop-color="#C9A992"/>
</linearGradient>
<linearGradient id="paint13_linear_2786_463" x1="55.3793" y1="31.6455" x2="43.602" y2="24.3794" gradientUnits="userSpaceOnUse">
<stop stop-color="#711302"/>
<stop offset="1" stop-color="#C9A992"/>
</linearGradient>
<linearGradient id="paint14_linear_2786_463" x1="55.4261" y1="32.2813" x2="43.6489" y2="25.0152" gradientUnits="userSpaceOnUse">
<stop stop-color="#711302"/>
<stop offset="1" stop-color="#C9A992"/>
</linearGradient>
<linearGradient id="paint15_linear_2786_463" x1="55.7933" y1="31.0892" x2="46.9957" y2="27.8993" gradientUnits="userSpaceOnUse">
<stop stop-color="#711302"/>
<stop offset="1" stop-color="#C9A992"/>
</linearGradient>
<linearGradient id="paint16_linear_2786_463" x1="55.7503" y1="30.4563" x2="46.9527" y2="27.2664" gradientUnits="userSpaceOnUse">
<stop stop-color="#711302"/>
<stop offset="1" stop-color="#C9A992"/>
</linearGradient>
<linearGradient id="paint17_linear_2786_463" x1="56.0238" y1="31.0727" x2="47.2262" y2="27.8829" gradientUnits="userSpaceOnUse">
<stop stop-color="#711302"/>
<stop offset="1" stop-color="#C9A992"/>
</linearGradient>
<linearGradient id="paint18_linear_2786_463" x1="56.2074" y1="30.9419" x2="44.4301" y2="23.6758" gradientUnits="userSpaceOnUse">
<stop stop-color="#711302"/>
<stop offset="1" stop-color="#C9A992"/>
</linearGradient>
<linearGradient id="paint19_linear_2786_463" x1="56.6214" y1="30.3856" x2="47.8238" y2="27.1957" gradientUnits="userSpaceOnUse">
<stop stop-color="#711302"/>
<stop offset="1" stop-color="#C9A992"/>
</linearGradient>
<linearGradient id="paint20_linear_2786_463" x1="56.5785" y1="29.7527" x2="47.7809" y2="26.5628" gradientUnits="userSpaceOnUse">
<stop stop-color="#711302"/>
<stop offset="1" stop-color="#C9A992"/>
</linearGradient>
<linearGradient id="paint21_linear_2786_463" x1="55.1839" y1="35.0641" x2="46.3863" y2="31.8742" gradientUnits="userSpaceOnUse">
<stop stop-color="#711302"/>
<stop offset="1" stop-color="#C9A992"/>
</linearGradient>
<linearGradient id="paint22_linear_2786_463" x1="55.3675" y1="34.9333" x2="43.5903" y2="27.6672" gradientUnits="userSpaceOnUse">
<stop stop-color="#711302"/>
<stop offset="1" stop-color="#C9A992"/>
</linearGradient>
<linearGradient id="paint23_linear_2786_463" x1="55.7816" y1="34.3769" x2="46.984" y2="31.1871" gradientUnits="userSpaceOnUse">
<stop stop-color="#711302"/>
<stop offset="1" stop-color="#C9A992"/>
</linearGradient>
<linearGradient id="paint24_linear_2786_463" x1="55.7386" y1="33.744" x2="46.941" y2="30.5541" gradientUnits="userSpaceOnUse">
<stop stop-color="#711302"/>
<stop offset="1" stop-color="#C9A992"/>
</linearGradient>
<linearGradient id="paint25_linear_2786_463" x1="55.7386" y1="33.744" x2="46.941" y2="30.5541" gradientUnits="userSpaceOnUse">
<stop stop-color="#711302"/>
<stop offset="1" stop-color="#C9A992"/>
</linearGradient>
<linearGradient id="paint26_linear_2786_463" x1="55.7386" y1="33.744" x2="46.941" y2="30.5541" gradientUnits="userSpaceOnUse">
<stop stop-color="#711302"/>
<stop offset="1" stop-color="#C9A992"/>
</linearGradient>
<linearGradient id="paint27_linear_2786_463" x1="55.7386" y1="33.744" x2="46.941" y2="30.5541" gradientUnits="userSpaceOnUse">
<stop stop-color="#711302"/>
<stop offset="1" stop-color="#C9A992"/>
</linearGradient>
<linearGradient id="paint28_linear_2786_463" x1="54.2933" y1="34.0505" x2="45.4957" y2="30.8606" gradientUnits="userSpaceOnUse">
<stop stop-color="#711302"/>
<stop offset="1" stop-color="#C9A992"/>
</linearGradient>
<linearGradient id="paint29_linear_2786_463" x1="54.3714" y1="35.8673" x2="45.5738" y2="32.6774" gradientUnits="userSpaceOnUse">
<stop stop-color="#711302"/>
<stop offset="1" stop-color="#C9A992"/>
</linearGradient>
<linearGradient id="paint30_linear_2786_463" x1="54.555" y1="35.7365" x2="42.7778" y2="28.4704" gradientUnits="userSpaceOnUse">
<stop stop-color="#711302"/>
<stop offset="1" stop-color="#C9A992"/>
</linearGradient>
<linearGradient id="paint31_linear_2786_463" x1="54.9691" y1="35.1802" x2="46.1715" y2="31.9903" gradientUnits="userSpaceOnUse">
<stop stop-color="#711302"/>
<stop offset="1" stop-color="#C9A992"/>
</linearGradient>
<linearGradient id="paint32_linear_2786_463" x1="54.9261" y1="34.5472" x2="46.1285" y2="31.3574" gradientUnits="userSpaceOnUse">
<stop stop-color="#711302"/>
<stop offset="1" stop-color="#C9A992"/>
</linearGradient>
<linearGradient id="paint33_linear_2786_463" x1="54.9261" y1="34.5472" x2="46.1285" y2="31.3574" gradientUnits="userSpaceOnUse">
<stop stop-color="#711302"/>
<stop offset="1" stop-color="#C9A992"/>
</linearGradient>
<linearGradient id="paint34_linear_2786_463" x1="54.9261" y1="34.5472" x2="46.1285" y2="31.3574" gradientUnits="userSpaceOnUse">
<stop stop-color="#711302"/>
<stop offset="1" stop-color="#C9A992"/>
</linearGradient>
<linearGradient id="paint35_linear_2786_463" x1="54.9261" y1="34.5472" x2="46.1285" y2="31.3574" gradientUnits="userSpaceOnUse">
<stop stop-color="#711302"/>
<stop offset="1" stop-color="#C9A992"/>
</linearGradient>
<linearGradient id="paint36_linear_2786_463" x1="53.4808" y1="34.8537" x2="44.6832" y2="31.6639" gradientUnits="userSpaceOnUse">
<stop stop-color="#711302"/>
<stop offset="1" stop-color="#C9A992"/>
</linearGradient>
</defs>
</svg>
