<svg width="40" height="40" viewBox="0 0 40 40" fill="none" xmlns="http://www.w3.org/2000/svg">
<path d="M20 40C31.0457 40 40 31.0457 40 20C40 8.95431 31.0457 0 20 0C8.95431 0 0 8.95431 0 20C0 31.0457 8.95431 40 20 40Z" fill="url(#paint0_linear_272_45)"/>
<path d="M39.9727 20.0273C39.9727 18.7638 39.8542 17.5281 39.6301 16.3297L30.079 8.34839L18.5989 23.3018L13.4114 30.2787L24.2165 39.5745C33.2235 37.6281 39.9727 29.6166 39.9727 20.0273Z" fill="url(#paint1_linear_272_45)"/>
<path d="M10.5084 22.4223L12.9239 29.8107C13.0955 30.3358 13.742 30.5234 14.168 30.1716L21.3821 24.2165C21.3821 24.2165 13.7161 21.2263 13.7161 21.3892C13.7161 21.5524 10.5084 22.4223 10.5084 22.4223Z" fill="#B5D1DB"/>
<path d="M29.5418 8.22219C24.8307 10.0855 9.62435 16.3167 3.86889 18.6779C3.10911 18.9896 3.15461 20.0797 3.93705 20.3291L10.5084 22.4224L12.9163 29.7874C13.0131 30.0835 13.2577 30.2746 13.5305 30.3259C13.752 30.3676 14.0786 24.3616 14.0786 24.3616C14.0786 24.3616 20.9867 29.4847 24.2634 31.9042C25.0707 32.5002 26.2236 32.0519 26.4146 31.0668C27.3907 26.0361 29.8314 13.4572 30.6658 9.15698C30.7915 8.51026 30.1544 7.97982 29.5418 8.22219Z" fill="white"/>
<path d="M13.5305 30.3257C13.752 30.3674 14.0786 24.3614 14.0786 24.3614L25.4277 13.7012C25.5045 13.6291 25.4127 13.5076 25.3225 13.5617L10.5084 22.4224L12.9163 29.7875C13.0131 30.0836 13.2577 30.2744 13.5305 30.3257Z" fill="#D6E2EA"/>
<defs>
<linearGradient id="paint0_linear_272_45" x1="0" y1="20" x2="40" y2="20" gradientUnits="userSpaceOnUse">
<stop stop-color="#5190C5"/>
<stop offset="1" stop-color="#72B3E3"/>
</linearGradient>
<linearGradient id="paint1_linear_272_45" x1="20.1586" y1="16.9419" x2="35.4316" y2="32.2148" gradientUnits="userSpaceOnUse">
<stop stop-color="#2C6FA8"/>
<stop offset="0.1288" stop-color="#3375AE" stop-opacity="0.8562"/>
<stop offset="0.5945" stop-color="#4989BF" stop-opacity="0.3362"/>
<stop offset="0.8957" stop-color="#5190C5" stop-opacity="0"/>
</linearGradient>
</defs>
</svg>
